PathFileType	4	(X/Y/Z)	T:\Spectrum_Optical_Capture\Spectrum_Demo_10_05_01_TRUECOMBAT\07_Smooth_Trc\TC_Jog_1.trc
DataRate	CameraRate	NumFrames	NumMarkers	Units	OrigDataRate	OrigDataStartFrame	OrigNumFrames
60.0	60.0	       4	46	mm	60.0	253	       504
Frame#	Time	HeadTop			ForeHead			LFrontHead			RFrontHead			TopSpine			Sternum			Scapula			LFShoulder			LShoulder			LBicep			LOuterElbow			LHand			LWristPinky			LWristThumb			RFShoulder			RShoulder			RBicep			ROuterElbow			RHand			RWristPinky			RWristThumb			MiddleBack			LowerBack			Root			Pelvis			LBackWaist			RBackWaist			LFrontWaist			RFrontWaist			Bellymarker			LThigh			LOuterKnee			LAnkle			LHeel			LOuterMeta			LToe			RThigh			ROuterKnee			RAnkle			RHeel			ROuterMeta			RToe			Floor1			Floor2			Floor3			Floor4			
		X1	Y1	Z1	X2	Y2	Z2	X3	Y3	Z3	X4	Y4	Z4	X5	Y5	Z5	X6	Y6	Z6	X7	Y7	Z7	X8	Y8	Z8	X9	Y9	Z9	X10	Y10	Z10	X11	Y11	Z11	X12	Y12	Z12	X13	Y13	Z13	X14	Y14	Z14	X15	Y15	Z15	X16	Y16	Z16	X17	Y17	Z17	X18	Y18	Z18	X19	Y19	Z19	X20	Y20	Z20	X21	Y21	Z21	X22	Y22	Z22	X23	Y23	Z23	X24	Y24	Z24	X25	Y25	Z25	X26	Y26	Z26	X27	Y27	Z27	X28	Y28	Z28	X29	Y29	Z29	X30	Y30	Z30	X31	Y31	Z31	X32	Y32	Z32	X33	Y33	Z33	X34	Y34	Z34	X35	Y35	Z35	X36	Y36	Z36	X37	Y37	Z37	X38	Y38	Z38	X39	Y39	Z39	X40	Y40	Z40	X41	Y41	Z41	X42	Y42	Z42	X43	Y43	Z43	X44	Y44	Z44	X45	Y45	Z45	X46	Y46	Z46	

253	4.200	-27.06112	1691.37366	113.56964	44.34658	1565.01624	202.36308	69.93901	1564.84631	82.72952	-68.87322	1565.79285	205.85364	-147.15881	1406.36304	-12.48571	12.13120	1181.15393	139.54025	-271.02563	1278.19617	36.88014	51.33921	1299.49622	68.19572	53.23953	1398.65979	-84.71417	65.70355	1236.39758	-222.56880	-28.97653	1189.48669	-303.98117	110.19772	1005.00635	-201.52565	119.45841	899.90979	-173.40648	179.50566	949.90027	-104.47002	-56.04986	1293.39246	177.58995	-206.12189	1379.92920	188.82611	-303.81406	1220.54077	206.01474	-323.44833	1054.50146	205.15416	-114.01847	1087.55200	325.91251	-25.26558	1054.69153	358.95755	-6.71699	1149.62463	380.88580	-170.94482	1325.57434	-40.94398	-176.65869	1202.01855	-58.21705	-171.94759	1090.97644	-72.84534	-37.19545	1121.97668	-133.59921	-43.84432	1001.65210	-143.95200	-270.02597	1002.61517	22.29127	53.41396	987.90875	-44.22933	-206.01921	976.20642	150.67065	-9.20786	981.15588	142.37350	83.43819	745.41937	-57.86671	126.01289	606.42609	41.04915	62.42915	227.82042	11.38997	-42.85494	168.24252	-7.39112	97.90059	124.23926	49.69687	121.31064	120.96237	174.70667	-264.23315	708.14722	101.02650	-296.58630	570.71344	4.02413	-391.29639	233.97438	-183.15334	-382.90454	201.83711	-302.97308	-405.58817	83.84042	-195.08504	-303.54959	36.52879	-158.36725	4200.31543	32.31739	-4241.16992	-3732.80347	-12.95628	-4191.04639	-3783.96558	-16.02316	4949.59229	4162.39893	21.39854	4905.04785	
254	4.217	-1.87129	1696.52563	140.69614	69.70598	1570.48279	229.47083	95.53097	1570.30554	109.72498	-43.53492	1571.04004	233.06670	-121.66335	1412.40930	15.59712	38.20485	1188.32947	167.10080	-245.44551	1284.63403	65.72466	77.02077	1306.53711	94.90044	77.73183	1405.61658	-57.10438	88.29339	1245.53650	-196.78510	-8.20361	1199.72815	-276.98181	131.16051	1013.87067	-177.26595	139.90065	908.66315	-148.84689	201.41685	958.20062	-81.15509	-29.35900	1301.11768	205.19246	-179.63762	1386.63342	216.39948	-278.43573	1228.58508	234.45905	-299.55823	1062.64209	234.56334	-88.31261	1098.42566	350.90848	1.80574	1067.03784	381.67551	19.96266	1162.08801	402.64023	-145.83621	1331.89233	-12.72834	-151.22166	1208.33984	-29.50148	-146.61049	1096.98120	-43.03668	-11.88561	1128.09558	-105.19336	-18.60951	1006.78149	-113.58334	-243.39491	1008.51691	53.57956	79.30165	994.41962	-14.93834	-178.61494	983.10858	181.79234	18.07088	988.67218	171.84062	107.08167	747.75470	-29.83418	145.61728	605.18555	65.71017	103.88652	214.22221	64.77148	2.21166	148.77586	52.36175	144.92047	113.01132	111.02479	169.82668	119.58978	235.98438	-238.50996	713.85138	131.94676	-271.84848	576.08344	35.76263	-375.60251	251.83725	-162.71428	-364.79776	228.43449	-280.74588	-397.25397	103.94215	-183.33319	-300.12930	41.87645	-148.66843	4200.36768	32.30078	-4241.14111	-3732.84473	-12.93676	-4191.03027	-3783.93677	-15.99328	4949.64795	4162.58496	21.19142	4905.03516	
255	4.233	22.93388	1699.03076	167.56770	94.69623	1573.32739	256.35678	120.66240	1573.09412	136.64256	-18.44417	1573.54407	260.08649	-96.31563	1415.33350	43.30164	63.85130	1192.48755	194.78859	-219.87854	1287.95068	93.88528	102.45809	1310.46265	121.83506	102.37484	1409.44373	-29.51581	112.03307	1250.90320	-170.38504	14.32782	1205.33643	-249.66936	154.23384	1019.56158	-150.59721	162.85484	914.72632	-121.13486	225.25334	964.36975	-54.73375	-3.25184	1305.89929	232.80612	-153.67752	1390.31396	243.66411	-253.72699	1233.71179	262.37625	-277.01489	1068.18481	263.48743	-63.98873	1104.66187	376.09622	27.04913	1073.76843	404.70493	46.04052	1168.85950	424.60971	-120.55994	1334.72424	15.05229	-125.50219	1211.09644	-1.41231	-121.15917	1099.53052	-14.13124	13.70913	1130.50061	-76.88190	6.87636	1008.01172	-83.81418	-217.09402	1011.33258	83.85147	105.01521	997.22131	14.37619	-151.85323	987.52179	212.05882	44.37661	993.01178	201.16888	129.98123	745.71503	-2.69168	164.92363	599.85968	89.71216	141.54080	202.26703	113.75787	43.06663	133.38826	107.46684	187.31123	103.28771	166.34012	213.57918	116.76279	290.62338	-210.90393	716.59222	164.74753	-244.45401	577.33282	71.11100	-356.91470	270.12003	-140.63187	-343.48489	254.87161	-258.03235	-387.06012	127.20026	-169.56509	-296.03583	51.99768	-136.01727	4200.40430	32.32493	-4241.10986	-3732.79517	-12.91313	-4191.01172	-3783.89551	-15.93273	4949.74512	4162.76367	21.07872	4905.02734																																																																																																																																														39.50588	1309.46838	187.88857	
256	4.250	47.32490	1698.60986	194.17444	119.33434	1573.32190	283.02231	145.39252	1573.05542	163.49251	6.34591	1573.10632	286.87469	-71.15575	1414.98230	70.65382	89.13693	1193.45020	222.56377	-194.41348	1287.93762	121.34025	127.61188	1311.04248	149.06030	127.18211	1409.82874	-1.95402	136.89554	1252.09534	-143.37097	38.72299	1206.15576	-222.10974	179.44229	1021.84857	-121.61988	188.48679	917.70428	-90.71332	250.97076	967.99475	-25.31997	22.16519	1307.33765	260.42114	-128.26797	1390.84070	270.57550	-229.77986	1235.85388	289.79968	-255.61349	1070.93909	291.70743	-40.90636	1105.90234	401.45908	50.65576	1074.47485	428.09894	71.39503	1169.50232	447.25214	-95.11943	1333.89685	42.45575	-99.70134	1210.22742	26.04279	-95.67474	1098.28088	14.05125	39.32222	1129.16833	-48.74589	32.40145	1005.35382	-54.74261	-191.07124	1010.40656	113.26954	130.57841	996.45764	43.53346	-125.57069	988.87561	241.53421	69.92402	994.02795	230.21178	152.54535	739.89752	23.81131	184.65775	591.40057	113.89905	174.46446	191.53108	156.96436	78.49513	121.40259	155.52785	223.43713	93.72171	214.11311	250.54272	110.98324	337.59564	-181.67920	716.02759	199.22397	-214.98085	574.42853	109.40865	-335.33984	288.43961	-116.32108	-319.34836	280.22357	-234.23817	-374.48608	152.31198	-152.87450	-290.16565	66.74242	-119.80472	4200.41211	32.40103	-4241.08691	-3732.66577	-12.88472	-4190.97998	-3783.83691	-15.83488	4949.85596	4162.89258	21.04603	4904.95264	
